<svg width="135" height="70" viewBox="0 0 135 70" fill="none" xmlns="http://www.w3.org/2000/svg">
<path d="M43.1384 15.9376C43.9634 11.6739 46.3027 7.81971 49.7547 5.03627V5.03627C53.4171 1.95532 58.1257 0.276678 62.9874 0.318753H115.19C118.064 0.276386 120.913 0.8359 123.541 1.95861C126.168 3.08132 128.511 4.74045 130.408 6.82128V6.82128V7.20378C132.202 9.28174 133.52 11.7027 134.272 14.3071C135.025 16.9114 135.196 19.6399 134.774 22.3126L128.952 54.1877C128.135 58.6665 125.688 62.718 122.05 65.6154C118.412 68.5129 113.822 70.0666 109.103 69.9978H56.5696C53.6811 69.9915 50.8288 69.3779 48.2119 68.1997C45.5949 67.0216 43.2764 65.3073 41.4182 63.1765C39.6333 61.0475 38.3435 58.5743 37.6358 55.9238C36.9282 53.2733 36.8191 50.5073 37.3161 47.8127L43.1384 15.9376ZM65.7001 12.7501L81.1823 29.5801C82.3164 30.8093 83.8997 31.5685 85.6012 31.6992C87.3028 31.8299 88.9909 31.3219 90.3128 30.2814L112.742 12.7501H65.7001ZM51.8058 55.0802C52.4207 55.7917 53.1891 56.3655 54.0574 56.7618C54.9258 57.1581 55.8734 57.3675 56.8342 57.3753H109.368C110.944 57.3973 112.477 56.8764 113.69 55.9064C114.903 54.9363 115.716 53.5808 115.984 52.084L121.343 22.3126L98.6494 40.1627C94.6755 43.2765 89.6061 44.7897 84.5013 44.3857C79.3964 43.9818 74.6512 41.692 71.2578 37.9952L55.6433 21.0376L50.3502 49.9165C50.19 50.8274 50.2372 51.761 50.4885 52.6526C50.7398 53.5443 51.1893 54.3726 51.8058 55.0802V55.0802ZM6.61632 25.5001H19.849C21.6037 25.5001 23.2866 26.1718 24.5274 27.3673C25.7682 28.5629 26.4653 30.1844 26.4653 31.8751C26.4653 33.5659 25.7682 35.1874 24.5274 36.383C23.2866 37.5785 21.6037 38.2502 19.849 38.2502H6.61632C4.86157 38.2502 3.17867 37.5785 1.93787 36.383C0.697071 35.1874 1.64309e-06 33.5659 1.64309e-06 31.8751C1.64309e-06 30.1844 0.697071 28.5629 1.93787 27.3673C3.17867 26.1718 4.86157 25.5001 6.61632 25.5001ZM6.61632 12.7501C4.86157 12.7501 3.17867 12.0784 1.93787 10.8829C0.697071 9.6873 1.64309e-06 8.06579 1.64309e-06 6.37503C1.64309e-06 4.68427 0.697071 3.06275 1.93787 1.8672C3.17867 0.671654 4.86157 0 6.61632 0H26.4653C28.22 0 29.9029 0.671654 31.1437 1.8672C32.3845 3.06275 33.0816 4.68427 33.0816 6.37503C33.0816 8.06579 32.3845 9.6873 31.1437 10.8829C29.9029 12.0784 28.22 12.7501 26.4653 12.7501H6.61632Z" fill="black"/>
</svg>
