<svg width="109" height="106" viewBox="0 0 109 106" fill="none" xmlns="http://www.w3.org/2000/svg">
<path d="M65.4 31.8H70.85C72.2954 31.8 73.6817 31.2416 74.7037 30.2477C75.7258 29.2537 76.3 27.9056 76.3 26.5C76.3 25.0944 75.7258 23.7463 74.7037 22.7523C73.6817 21.7584 72.2954 21.2 70.85 21.2H65.4C63.9546 21.2 62.5683 21.7584 61.5463 22.7523C60.5242 23.7463 59.95 25.0944 59.95 26.5C59.95 27.9056 60.5242 29.2537 61.5463 30.2477C62.5683 31.2416 63.9546 31.8 65.4 31.8V31.8ZM65.4 53H70.85C72.2954 53 73.6817 52.4416 74.7037 51.4477C75.7258 50.4537 76.3 49.1056 76.3 47.7C76.3 46.2944 75.7258 44.9463 74.7037 43.9523C73.6817 42.9584 72.2954 42.4 70.85 42.4H65.4C63.9546 42.4 62.5683 42.9584 61.5463 43.9523C60.5242 44.9463 59.95 46.2944 59.95 47.7C59.95 49.1056 60.5242 50.4537 61.5463 51.4477C62.5683 52.4416 63.9546 53 65.4 53V53ZM38.15 31.8H43.6C45.0454 31.8 46.4317 31.2416 47.4537 30.2477C48.4758 29.2537 49.05 27.9056 49.05 26.5C49.05 25.0944 48.4758 23.7463 47.4537 22.7523C46.4317 21.7584 45.0454 21.2 43.6 21.2H38.15C36.7046 21.2 35.3183 21.7584 34.2963 22.7523C33.2742 23.7463 32.7 25.0944 32.7 26.5C32.7 27.9056 33.2742 29.2537 34.2963 30.2477C35.3183 31.2416 36.7046 31.8 38.15 31.8V31.8ZM38.15 53H43.6C45.0454 53 46.4317 52.4416 47.4537 51.4477C48.4758 50.4537 49.05 49.1056 49.05 47.7C49.05 46.2944 48.4758 44.9463 47.4537 43.9523C46.4317 42.9584 45.0454 42.4 43.6 42.4H38.15C36.7046 42.4 35.3183 42.9584 34.2963 43.9523C33.2742 44.9463 32.7 46.2944 32.7 47.7C32.7 49.1056 33.2742 50.4537 34.2963 51.4477C35.3183 52.4416 36.7046 53 38.15 53V53ZM103.55 95.4H98.1V5.3C98.1 3.89435 97.5258 2.54628 96.5037 1.55233C95.4817 0.558391 94.0954 0 92.65 0H16.35C14.9046 0 13.5183 0.558391 12.4963 1.55233C11.4742 2.54628 10.9 3.89435 10.9 5.3V95.4H5.45C4.00457 95.4 2.61834 95.9584 1.59627 96.9523C0.574195 97.9463 0 99.2944 0 100.7C0 102.106 0.574195 103.454 1.59627 104.448C2.61834 105.442 4.00457 106 5.45 106H103.55C104.995 106 106.382 105.442 107.404 104.448C108.426 103.454 109 102.106 109 100.7C109 99.2944 108.426 97.9463 107.404 96.9523C106.382 95.9584 104.995 95.4 103.55 95.4ZM59.95 95.4H49.05V74.2H59.95V95.4ZM87.2 95.4H70.85V68.9C70.85 67.4944 70.2758 66.1463 69.2537 65.1523C68.2317 64.1584 66.8454 63.6 65.4 63.6H43.6C42.1546 63.6 40.7683 64.1584 39.7463 65.1523C38.7242 66.1463 38.15 67.4944 38.15 68.9V95.4H21.8V10.6H87.2V95.4Z" fill="black"/>
</svg>
