<svg width="73" height="108" viewBox="0 0 73 108" fill="none" xmlns="http://www.w3.org/2000/svg">
<g clip-path="url(#clip0_705_28)">
<path d="M40.2021 77.166L39.42 76.518C39.1293 76.3137 38.8137 76.1502 38.4814 76.032L37.5429 75.6C36.6972 75.417 35.8209 75.4543 34.9927 75.7088C34.1644 75.9633 33.4103 76.4269 32.7979 77.058C32.3373 77.5829 31.9669 78.1856 31.7029 78.84C31.3082 79.8238 31.2035 80.907 31.4018 81.9523C31.6001 82.9976 32.0925 83.9586 32.8171 84.7154C33.5418 85.4714 34.4662 85.9885 35.4742 86.2021C36.4821 86.415 37.5283 86.3149 38.4814 85.9136C39.1045 85.6006 39.6834 85.201 40.2021 84.7264C40.9256 83.9665 41.4158 83.0023 41.6107 81.9547C41.8056 80.907 41.6964 79.823 41.2971 78.84C41.0372 78.2156 40.6656 77.6477 40.2021 77.166ZM57.3571 0H15.6429C11.4941 0 7.51531 1.70678 4.58169 4.74487C1.64808 7.78296 0 11.9035 0 16.2V91.8C0 96.0964 1.64808 100.217 4.58169 103.255C7.51531 106.293 11.4941 108 15.6429 108H57.3571C61.5059 108 65.4847 106.293 68.4183 103.255C71.3519 100.217 73 96.0964 73 91.8V16.2C73 11.9035 71.3519 7.78296 68.4183 4.74487C65.4847 1.70678 61.5059 0 57.3571 0ZM62.5714 91.8C62.5714 93.2324 62.0221 94.6056 61.0442 95.6186C60.0663 96.6308 58.7401 97.2 57.3571 97.2H15.6429C14.2599 97.2 12.9337 96.6308 11.9558 95.6186C10.9779 94.6056 10.4286 93.2324 10.4286 91.8V16.2C10.4286 14.7679 10.9779 13.3943 11.9558 12.3816C12.9337 11.3689 14.2599 10.8 15.6429 10.8H57.3571C58.7401 10.8 60.0663 11.3689 61.0442 12.3816C62.0221 13.3943 62.5714 14.7679 62.5714 16.2V91.8Z" fill="black"/>
</g>
<defs>
<clipPath id="clip0_705_28">
<rect width="73" height="108" fill="white"/>
</clipPath>
</defs>
</svg>

