<svg width="14" height="14" viewBox="0 0 15 16" fill="none" xmlns="http://www.w3.org/2000/svg">
<path d="M7.5 8C9.57187 8 11.25 6.21 11.25 4C11.25 1.79 9.57187 0 7.5 0C5.42812 0 3.75 1.79 3.75 4C3.75 6.21 5.42812 8 7.5 8ZM7.5 2C8.53125 2 9.375 2.9 9.375 4C9.375 5.1 8.53125 6 7.5 6C6.46875 6 5.625 5.1 5.625 4C5.625 2.9 6.46875 2 7.5 2ZM7.5 9C4.99687 9 0 10.34 0 13V16H15V13C15 10.34 10.0031 9 7.5 9ZM13.125 14H1.875V13.01C2.0625 12.29 4.96875 11 7.5 11C10.0312 11 12.9375 12.29 13.125 13V14Z" fill="white"/>
</svg>

